<svg width="160" height="24" viewBox="0 0 160 24" fill="none" xmlns="http://www.w3.org/2000/svg">
<path d="M55.4213 17.9622C55.7928 17.6884 56.0899 17.6884 56.3128 17.9622L57.7057 20.2894C57.8543 20.4537 57.91 20.5997 57.8729 20.7275C57.8357 20.837 57.7336 20.9557 57.5664 21.0834C56.7678 21.6675 55.8764 22.133 54.892 22.4798C53.9077 22.8266 52.7841 23 51.5211 23C50.0539 23 48.6703 22.7262 47.3702 22.1786C46.0702 21.631 44.928 20.8827 43.9436 19.9335C42.9779 18.9844 42.2164 17.8709 41.6592 16.5932C41.1021 15.3155 40.8235 13.9557 40.8235 12.5137C40.8235 11.0535 41.1021 9.69361 41.6592 8.43416C42.2164 7.17471 42.9779 6.0704 43.9436 5.12125C44.928 4.1721 46.0702 3.43286 47.3702 2.90352C48.6703 2.35593 50.0539 2.08214 51.5211 2.08214C52.7841 2.08214 53.9077 2.25554 54.892 2.60235C55.8764 2.9309 56.7771 3.38722 57.5943 3.97132C57.7429 4.09909 57.8172 4.22686 57.8172 4.35463C57.8172 4.4824 57.7986 4.58279 57.7615 4.6558L56.285 7.11995C56.1178 7.33898 55.8578 7.34811 55.5049 7.14733C54.8549 6.74576 54.2141 6.43546 53.5827 6.21643C52.9698 5.99739 52.2826 5.88787 51.5211 5.88787C50.574 5.88787 49.7011 6.06128 48.9024 6.40808C48.1038 6.73664 47.4074 7.20209 46.8131 7.80443C46.2373 8.40678 45.7823 9.10952 45.448 9.91265C45.1137 10.7158 44.9465 11.5828 44.9465 12.5137C44.9465 13.4446 45.1137 14.3207 45.448 15.1421C45.7823 15.9452 46.2373 16.6571 46.8131 17.2777C47.4074 17.8801 48.1038 18.3638 48.9024 18.7288C49.7011 19.0756 50.574 19.249 51.5211 19.249C52.2826 19.249 52.9976 19.1304 53.6662 18.8931C54.3534 18.6375 54.9385 18.3272 55.4213 17.9622Z" fill="#EDEDED"/>
<path d="M29.364 19.605C29.2154 19.4407 29.104 19.2764 29.0297 19.1121C28.9554 18.9478 29.0204 18.7653 29.2247 18.5645L31.0912 16.7575C31.2584 16.6115 31.4163 16.5658 31.5648 16.6206C31.732 16.6571 31.8991 16.7484 32.0663 16.8944C32.3449 17.1682 32.6513 17.4511 32.9856 17.7432C33.3385 18.017 33.7099 18.2725 34.1 18.5098C34.5086 18.7288 34.945 18.9113 35.4093 19.0574C35.8736 19.1851 36.3658 19.249 36.8858 19.249C37.443 19.249 37.9352 19.176 38.3623 19.03C38.7895 18.884 39.1516 18.6923 39.4488 18.455C39.7645 18.1995 39.9967 17.9166 40.1453 17.6063C40.3124 17.2777 40.396 16.94 40.396 16.5932C40.396 16.1552 40.2567 15.7901 39.9781 15.498C39.7181 15.1877 39.3931 14.9322 39.0031 14.7314C38.613 14.5124 38.1859 14.339 37.7216 14.2112C37.2758 14.0652 36.8672 13.9465 36.4958 13.8553C34.2485 13.1982 32.5306 12.395 31.342 11.4459C30.1719 10.4785 29.5869 9.21904 29.5869 7.66754C29.5869 6.8279 29.7633 6.06128 30.1162 5.36767C30.4876 4.67406 30.9984 4.08084 31.6484 3.58801C32.317 3.07692 33.1156 2.68449 34.0443 2.41069C34.9729 2.1369 35.9943 2 37.1087 2C38.3345 2 39.5045 2.28292 40.6189 2.84876C41.7518 3.4146 42.7361 4.10821 43.5719 4.9296C43.9062 5.2764 43.8969 5.63233 43.544 5.99739L42.0118 7.61278C41.8261 7.77705 41.6496 7.83181 41.4825 7.77705C41.3153 7.70404 41.1389 7.59452 40.9532 7.4485C40.7303 7.26597 40.4703 7.06519 40.1731 6.84615C39.8945 6.62712 39.5788 6.42634 39.2259 6.24381C38.8916 6.04303 38.5295 5.87875 38.1395 5.75098C37.768 5.62321 37.378 5.55932 36.9694 5.55932C36.6165 5.55932 36.2451 5.5867 35.8551 5.64146C35.4836 5.69622 35.14 5.80574 34.8243 5.97001C34.5271 6.11604 34.2764 6.33507 34.0721 6.62712C33.8678 6.90091 33.7657 7.2751 33.7657 7.74968C33.7657 8.09648 33.8585 8.39765 34.0443 8.6532C34.2485 8.90874 34.5271 9.1369 34.88 9.33768C35.2515 9.52021 35.6786 9.69361 36.1615 9.85789C36.663 10.0222 37.2108 10.1864 37.8052 10.3507C38.7523 10.6245 39.6438 10.9348 40.4796 11.2816C41.3153 11.6102 42.0396 12.0209 42.6525 12.5137C43.284 13.0065 43.7854 13.5906 44.1569 14.266C44.5283 14.9413 44.7141 15.7536 44.7141 16.7027C44.7141 17.6519 44.5005 18.5189 44.0733 19.3038C43.6462 20.0704 43.0704 20.7275 42.3461 21.2751C41.6403 21.8227 40.8139 22.2425 39.8667 22.5346C38.9381 22.8266 37.9723 22.9726 36.9694 22.9726C35.5208 22.9726 34.1278 22.6623 32.7906 22.0417C31.4534 21.4211 30.3112 20.6089 29.364 19.605Z" fill="#EDEDED"/>
<path d="M54.65 19.605C54.5014 19.4407 54.3899 19.2764 54.3156 19.1121C54.2414 18.9478 54.3064 18.7653 54.5107 18.5645L56.3772 16.7575C56.5443 16.6115 56.7022 16.5658 56.8508 16.6206C57.0179 16.6571 57.1851 16.7484 57.3522 16.8944C57.6308 17.1682 57.9373 17.4511 58.2716 17.7432C58.6244 18.017 58.9959 18.2725 59.3859 18.5098C59.7945 18.7288 60.2309 18.9113 60.6952 19.0574C61.1596 19.1851 61.6517 19.249 62.1718 19.249C62.7289 19.249 63.2211 19.176 63.6483 19.03C64.0754 18.884 64.4376 18.6923 64.7347 18.455C65.0505 18.1995 65.2826 17.9166 65.4312 17.6063C65.5983 17.2777 65.6819 16.94 65.6819 16.5932C65.6819 16.1552 65.5426 15.7901 65.264 15.498C65.004 15.1877 64.679 14.9322 64.289 14.7314C63.899 14.5124 63.4718 14.339 63.0075 14.2112C62.5618 14.0652 62.1532 13.9465 61.7817 13.8553C59.5345 13.1982 57.8165 12.395 56.6279 11.4459C55.4578 10.4785 54.8728 9.21904 54.8728 7.66754C54.8728 6.8279 55.0493 6.06128 55.4021 5.36767C55.7736 4.67406 56.2843 4.08084 56.9343 3.58801C57.603 3.07692 58.4016 2.68449 59.3302 2.41069C60.2588 2.1369 61.2803 2 62.3946 2C63.6204 2 64.7905 2.28292 65.9048 2.84876C67.0377 3.4146 68.022 4.10821 68.8578 4.9296C69.1921 5.2764 69.1828 5.63233 68.8299 5.99739L67.2977 7.61278C67.112 7.77705 66.9356 7.83181 66.7684 7.77705C66.6013 7.70404 66.4248 7.59452 66.2391 7.4485C66.0162 7.26597 65.7562 7.06519 65.4591 6.84615C65.1805 6.62712 64.8647 6.42634 64.5119 6.24381C64.1776 6.04303 63.8154 5.87875 63.4254 5.75098C63.0539 5.62321 62.6639 5.55932 62.2553 5.55932C61.9025 5.55932 61.531 5.5867 61.141 5.64146C60.7695 5.69622 60.426 5.80574 60.1102 5.97001C59.8131 6.11604 59.5623 6.33507 59.358 6.62712C59.1537 6.90091 59.0516 7.2751 59.0516 7.74968C59.0516 8.09648 59.1445 8.39765 59.3302 8.6532C59.5345 8.90874 59.8131 9.1369 60.1659 9.33768C60.5374 9.52021 60.9645 9.69361 61.4474 9.85789C61.9489 10.0222 62.4968 10.1864 63.0911 10.3507C64.0383 10.6245 64.9297 10.9348 65.7655 11.2816C66.6013 11.6102 67.3256 12.0209 67.9385 12.5137C68.5699 13.0065 69.0714 13.5906 69.4428 14.266C69.8143 14.9413 70 15.7536 70 16.7027C70 17.6519 69.7864 18.5189 69.3593 19.3038C68.9321 20.0704 68.3563 20.7275 67.632 21.2751C66.9263 21.8227 66.0998 22.2425 65.1526 22.5346C64.224 22.8266 63.2582 22.9726 62.2553 22.9726C60.8067 22.9726 59.4138 22.6623 58.0765 22.0417C56.7393 21.4211 55.5971 20.6089 54.65 19.605Z" fill="#EDEDED"/>
<path d="M7.71825 21.163C4.66068 21.154 2.01953 19.4816 0.752121 16.3131C-0.515293 13.1446 -0.126251 9.18677 1.50845 5.63867C4.56602 5.64772 7.20717 7.32011 8.47458 10.4886C9.742 13.6571 9.35296 17.6149 7.71825 21.163Z" fill="white"/>
<path d="M7.71825 21.163C4.66068 21.154 2.01953 19.4816 0.752121 16.3131C-0.515293 13.1446 -0.126251 9.18677 1.50845 5.63867C4.56602 5.64772 7.20717 7.32011 8.47458 10.4886C9.742 13.6571 9.35296 17.6149 7.71825 21.163Z" fill="url(#paint0_radial_18_41)"/>
<g style="mix-blend-mode:hard-light">
<path d="M7.71825 21.163C4.66068 21.154 2.01953 19.4816 0.752121 16.3131C-0.515293 13.1446 -0.126251 9.18677 1.50845 5.63867C4.56602 5.64772 7.20717 7.32011 8.47458 10.4886C9.742 13.6571 9.35296 17.6149 7.71825 21.163Z" fill="black" fill-opacity="0.5"/>
</g>
<path style="mix-blend-mode:hard-light" d="M7.71825 21.163C4.66068 21.154 2.01953 19.4816 0.752121 16.3131C-0.515293 13.1446 -0.126251 9.18677 1.50845 5.63867C4.56602 5.64772 7.20717 7.32011 8.47458 10.4886C9.742 13.6571 9.35296 17.6149 7.71825 21.163Z" fill="url(#paint1_linear_18_41)" fill-opacity="0.5"/>
<path d="M7.70036 21.1349C4.66198 21.1194 2.03907 19.4543 0.778425 16.3027C-0.48342 13.1481 -0.0994327 9.2059 1.52661 5.66699C4.565 5.68254 7.18791 7.34757 8.44855 10.4992C9.71039 13.6537 9.3264 17.596 7.70036 21.1349Z" stroke="url(#paint2_linear_18_41)" stroke-opacity="0.05" stroke-width="0.056338"/>
<path d="M7.07539 21.2811C11.1193 20.2452 14.6486 17.3991 16.3935 13.2598C18.1385 9.12042 17.7098 4.6112 15.6248 1C11.5809 2.03585 8.05161 4.88197 6.30668 9.02133C4.56175 13.1607 4.99041 17.6699 7.07539 21.2811Z" fill="white"/>
<path d="M7.07539 21.2811C11.1193 20.2452 14.6486 17.3991 16.3935 13.2598C18.1385 9.12042 17.7098 4.6112 15.6248 1C11.5809 2.03585 8.05161 4.88197 6.30668 9.02133C4.56175 13.1607 4.99041 17.6699 7.07539 21.2811Z" fill="url(#paint3_radial_18_41)"/>
<path d="M16.3674 13.2488C14.6291 17.3727 11.1161 20.2103 7.08902 21.2485C5.01748 17.6477 4.59417 13.1561 6.33255 9.03225C8.07094 4.90842 11.5839 2.07076 15.611 1.03259C17.6825 4.63337 18.1058 9.12501 16.3674 13.2488Z" stroke="url(#paint4_linear_18_41)" stroke-opacity="0.05" stroke-width="0.056338"/>
<path d="M6.99854 21.2306C9.55392 23.261 12.9751 23.9743 16.3421 22.8378C19.709 21.7012 22.2707 18.9682 23.4953 15.6619C20.9399 13.6315 17.5187 12.9181 14.1518 14.0547C10.7848 15.1913 8.22308 17.9243 6.99854 21.2306Z" fill="white"/>
<path d="M6.99854 21.2306C9.55392 23.261 12.9751 23.9743 16.3421 22.8378C19.709 21.7012 22.2707 18.9682 23.4953 15.6619C20.9399 13.6315 17.5187 12.9181 14.1518 14.0547C10.7848 15.1913 8.22308 17.9243 6.99854 21.2306Z" fill="url(#paint5_radial_18_41)"/>
<g style="mix-blend-mode:hard-light">
<path d="M6.99854 21.2306C9.55392 23.261 12.9751 23.9743 16.3421 22.8378C19.709 21.7012 22.2707 18.9682 23.4953 15.6619C20.9399 13.6315 17.5187 12.9181 14.1518 14.0547C10.7848 15.1913 8.22308 17.9243 6.99854 21.2306Z" fill="black" fill-opacity="0.2"/>
</g>
<path style="mix-blend-mode:hard-light" d="M6.99854 21.2306C9.55392 23.261 12.9751 23.9743 16.3421 22.8378C19.709 21.7012 22.2707 18.9682 23.4953 15.6619C20.9399 13.6315 17.5187 12.9181 14.1518 14.0547C10.7848 15.1913 8.22308 17.9243 6.99854 21.2306Z" fill="url(#paint6_linear_18_41)" fill-opacity="0.5"/>
<path d="M7.70036 21.1349C4.66198 21.1194 2.03907 19.4543 0.778425 16.3027C-0.48342 13.1481 -0.0994327 9.2059 1.52661 5.66699C4.565 5.68254 7.18791 7.34757 8.44855 10.4992C9.71039 13.6537 9.3264 17.596 7.70036 21.1349Z" stroke="url(#paint7_linear_18_41)" stroke-opacity="0.05" stroke-width="0.056338"/>
<path d="M7.07539 21.2811C11.1193 20.2452 14.6486 17.3991 16.3935 13.2598C18.1385 9.12042 17.7098 4.6112 15.6248 1C11.5809 2.03585 8.05161 4.88197 6.30668 9.02133C4.56175 13.1607 4.99041 17.6699 7.07539 21.2811Z" fill="url(#paint8_radial_18_41)"/>
<path style="mix-blend-mode:hard-light" d="M6.99854 21.2306C9.55392 23.261 12.9751 23.9743 16.3421 22.8378C19.709 21.7012 22.2707 18.9682 23.4953 15.6619C20.9399 13.6315 17.5187 12.9181 14.1518 14.0547C10.7848 15.1913 8.22308 17.9243 6.99854 21.2306Z" fill="url(#paint9_linear_18_41)" fill-opacity="0.5"/>
<path d="M16.333 22.811C12.9824 23.942 9.57839 23.236 7.03198 21.2211C8.25672 17.9304 10.8092 15.2126 14.1607 14.0813C17.5113 12.9502 20.9152 13.6562 23.4616 15.6712C22.2369 18.9619 19.6844 21.6796 16.333 22.811Z" stroke="url(#paint10_linear_18_41)" stroke-opacity="0.05" stroke-width="0.056338"/>
<defs>
<radialGradient id="paint0_radial_18_41" cx="0" cy="0" r="1" gradientUnits="userSpaceOnUse" gradientTransform="translate(-3.2402 15.0466) rotate(-10.029) scale(17.9572 17.784)">
<stop stop-color="#00B0BB"/>
<stop offset="1" stop-color="#00DB65"/>
</radialGradient>
<linearGradient id="paint1_linear_18_41" x1="7.15518" y1="4.83671" x2="1.39457" y2="18.713" gradientUnits="userSpaceOnUse">
<stop stop-color="#18E299"/>
<stop offset="1"/>
</linearGradient>
<linearGradient id="paint2_linear_18_41" x1="7.71312" y1="8.03934" x2="1.52615" y2="18.7697" gradientUnits="userSpaceOnUse">
<stop/>
<stop offset="1" stop-opacity="0"/>
</linearGradient>
<radialGradient id="paint3_radial_18_41" cx="0" cy="0" r="1" gradientUnits="userSpaceOnUse" gradientTransform="translate(7.87905 20.9059) rotate(-75.7542) scale(21.6246 23.7772)">
<stop stop-color="#00BBBB"/>
<stop offset="0.712616" stop-color="#00DB65"/>
</radialGradient>
<linearGradient id="paint4_linear_18_41" x1="7.36696" y1="5.8946" x2="15.321" y2="16.3956" gradientUnits="userSpaceOnUse">
<stop/>
<stop offset="1" stop-opacity="0"/>
</linearGradient>
<radialGradient id="paint5_radial_18_41" cx="0" cy="0" r="1" gradientUnits="userSpaceOnUse" gradientTransform="translate(7.61022 21.5418) rotate(-20.3525) scale(18.5603 17.32)">
<stop stop-color="#00B0BB"/>
<stop offset="1" stop-color="#00DB65"/>
</radialGradient>
<linearGradient id="paint6_linear_18_41" x1="16.5727" y1="13.0308" x2="9.80575" y2="23.0174" gradientUnits="userSpaceOnUse">
<stop stop-color="#00B1BC"/>
<stop offset="1"/>
</linearGradient>
<linearGradient id="paint7_linear_18_41" x1="7.71312" y1="8.03934" x2="1.52615" y2="18.7697" gradientUnits="userSpaceOnUse">
<stop/>
<stop offset="1" stop-opacity="0"/>
</linearGradient>
<radialGradient id="paint8_radial_18_41" cx="0" cy="0" r="1" gradientUnits="userSpaceOnUse" gradientTransform="translate(7.87905 20.9059) rotate(-75.7542) scale(21.6246 23.7772)">
<stop stop-color="#00BBBB"/>
<stop offset="0.712616" stop-color="#00DB65"/>
</radialGradient>
<linearGradient id="paint9_linear_18_41" x1="16.5727" y1="13.0308" x2="9.80575" y2="23.0174" gradientUnits="userSpaceOnUse">
<stop stop-color="#00B1BC"/>
<stop offset="1"/>
</linearGradient>
<linearGradient id="paint10_linear_18_41" x1="16.5726" y1="13.0307" x2="13.9335" y2="23.8646" gradientUnits="userSpaceOnUse">
<stop/>
<stop offset="1" stop-opacity="0"/>
</linearGradient>
</defs>
</svg>
